<svg xmlns="http://www.w3.org/2000/svg" width="12.903" height="8.605" viewBox="0 0 12.903 8.605">
  <path id="Icon_ionic-ios-arrow-round-back" data-name="Icon ionic-ios-arrow-round-back" d="M12.556,11.416a.586.586,0,0,1,0,.825L9.841,14.97H20.207a.583.583,0,0,1,0,1.165H9.841l2.725,2.729a.59.59,0,0,1,0,.825.58.58,0,0,1-.82,0l-3.693-3.72h0a.654.654,0,0,1-.121-.184.556.556,0,0,1-.045-.224.584.584,0,0,1,.166-.408l3.693-3.72A.571.571,0,0,1,12.556,11.416Z" transform="translate(-7.882 -11.252)"/>
</svg>
