<svg xmlns="http://www.w3.org/2000/svg" width="166" height="29" viewBox="0 0 166 29"><g><g><path fill="#fff" d="M58.467 6.558l-6.839 9.154-6.84-9.154h-4.14v15.574h4.21v-8.86l6.77 8.64 6.77-8.64v8.86h4.21V6.558z"/></g><g><path fill="#fff" d="M134.046 6.558l-6.84 9.154-6.84-9.154h-4.14v15.574h4.21v-8.86l6.77 8.64 6.77-8.64v8.86h4.21V6.558z"/></g><g><path fill="#fff" d="M112.412 22.132h-4.875l-1.849-3.122h-9.813l-1.848 3.122h-4.875l9.266-15.574h4.73zm-11.63-11.407-2.975 5.023h5.95z"/></g><g><path fill="#fff" d="M165.26 22.132h-4.875l-1.848-3.122h-9.813l-1.849 3.122H142l9.266-15.574h4.729zm-11.63-11.407-2.975 5.023h5.95z"/></g><g><path fill="#fff" d="M85.337 9.96V6.558H66.395v15.574h18.942V18.73H70.535v-2.833h12.347v-3.13H70.535V9.96z"/></g><g><path fill="#fff" d="M7.713 16.915l-3.915 1.788V.154h1.953v2.911l11.226 5.819L32.67 1.438l.608 1.651-3.13 1.737v1.999l-13.17 6.528L7.712 8.65z"/></g><g><path fill="#fff" d="M26.207 11.776l3.916-1.79v18.55H28.17v-2.911l-11.226-5.818-15.692 7.446L.644 25.6l3.13-1.736v-2l13.17-6.528 9.264 4.704z"/></g></g></svg>